<svg xmlns="http://www.w3.org/2000/svg" viewBox="0 0 64 64" width="64" height="64">
  <rect width="64" height="64" rx="14" fill="#FFF8E7"/>
  <!-- Hexagon pattern -->
  <polygon points="32,8 44,15 44,29 32,36 20,29 20,15" fill="#C49A3C" opacity="0.15"/>
  <!-- Honey jar -->
  <path d="M20 26 Q18 28 18 44 Q18 52 32 52 Q46 52 46 44 Q46 28 44 26Z" fill="#D4A85A" opacity="0.9"/>
  <!-- Jar neck -->
  <rect x="22" y="18" width="20" height="10" rx="3" fill="#C49A3C" opacity="0.8"/>
  <!-- Lid -->
  <rect x="20" y="14" width="24" height="6" rx="3" fill="#8B6F47"/>
  <!-- Honey drip -->
  <path d="M32 52 Q33 56 32 59 Q31 62 32 64" stroke="#C49A3C" stroke-width="3" fill="none" stroke-linecap="round"/>
  <!-- Shine -->
  <ellipse cx="26" cy="35" rx="3" ry="6" fill="white" opacity="0.3" transform="rotate(-20 26 35)"/>
</svg>
