<svg xmlns="http://www.w3.org/2000/svg" viewBox="0 0 64 64" width="64" height="64">
  <rect width="64" height="64" rx="14" fill="#FFF3CC"/>
  <!-- Honeycomb hexagons -->
  <polygon points="32,6 40,11 40,21 32,26 24,21 24,11" fill="#C49A3C" opacity="0.5"/>
  <polygon points="14,18 22,23 22,33 14,38 6,33 6,23" fill="#C49A3C" opacity="0.4"/>
  <polygon points="50,18 58,23 58,33 50,38 42,33 42,23" fill="#C49A3C" opacity="0.4"/>
  <polygon points="32,30 40,35 40,45 32,50 24,45 24,35" fill="#D4A85A" opacity="0.7"/>
  <polygon points="14,42 22,47 22,57 14,62 6,57 6,47" fill="#C49A3C" opacity="0.3"/>
  <polygon points="50,42 58,47 58,57 50,62 42,57 42,47" fill="#C49A3C" opacity="0.3"/>
  <!-- Honey drip -->
  <path d="M35 50 Q36 55 35 60" stroke="#C49A3C" stroke-width="3" fill="none" stroke-linecap="round"/>
</svg>
